<svg viewBox="0 0 848 352" width="848" height="352" xmlns="http://www.w3.org/2000/svg" xmlns:xlink="http://www.w3.org/1999/xlink">
    <style>
        rect { shape-rendering: crispEdges; }
        text {
            dominant-baseline: text-before-edge;
            white-space: pre;
            font: 14px monospace;
            fill: #bbbbbb;
        }
        .u { text-decoration: underline; }
    </style>
    <rect width="100%" height="100%" x="0" y="0" style="fill: #000000"/>
    <text x="0" y="0" style="fill: #909090">c</text>
    <text x="8" y="0" style="fill: #909090">p</text>
    <text x="16" y="0" style="fill: #909090">u</text>
    <text x="24" y="0" style="fill: #909090">:</text>
    <text x="40" y="0" style="fill: #909090">A</text>
    <text x="48" y="0" style="fill: #909090">p</text>
    <text x="56" y="0" style="fill: #909090">p</text>
    <text x="64" y="0" style="fill: #909090">l</text>
    <text x="72" y="0" style="fill: #909090">e</text>
    <text x="88" y="0" style="fill: #909090">M</text>
    <text x="96" y="0" style="fill: #909090">1</text>
    <text x="0" y="16" style="fill: #909090">r</text>
    <text x="8" y="16" style="fill: #909090">u</text>
    <text x="16" y="16" style="fill: #909090">n</text>
    <text x="24" y="16" style="fill: #909090">t</text>
    <text x="32" y="16" style="fill: #909090">i</text>
    <text x="40" y="16" style="fill: #909090">m</text>
    <text x="48" y="16" style="fill: #909090">e</text>
    <text x="56" y="16" style="fill: #909090">:</text>
    <text x="72" y="16" style="fill: #909090">d</text>
    <text x="80" y="16" style="fill: #909090">e</text>
    <text x="88" y="16" style="fill: #909090">n</text>
    <text x="96" y="16" style="fill: #909090">o</text>
    <text x="112" y="16" style="fill: #909090">1</text>
    <text x="120" y="16" style="fill: #909090">.</text>
    <text x="128" y="16" style="fill: #909090">2</text>
    <text x="136" y="16" style="fill: #909090">8</text>
    <text x="144" y="16" style="fill: #909090">.</text>
    <text x="152" y="16" style="fill: #909090">1</text>
    <text x="168" y="16" style="fill: #909090">(</text>
    <text x="176" y="16" style="fill: #909090">a</text>
    <text x="184" y="16" style="fill: #909090">a</text>
    <text x="192" y="16" style="fill: #909090">r</text>
    <text x="200" y="16" style="fill: #909090">c</text>
    <text x="208" y="16" style="fill: #909090">h</text>
    <text x="216" y="16" style="fill: #909090">6</text>
    <text x="224" y="16" style="fill: #909090">4</text>
    <text x="232" y="16" style="fill: #909090">-</text>
    <text x="240" y="16" style="fill: #909090">a</text>
    <text x="248" y="16" style="fill: #909090">p</text>
    <text x="256" y="16" style="fill: #909090">p</text>
    <text x="264" y="16" style="fill: #909090">l</text>
    <text x="272" y="16" style="fill: #909090">e</text>
    <text x="280" y="16" style="fill: #909090">-</text>
    <text x="288" y="16" style="fill: #909090">d</text>
    <text x="296" y="16" style="fill: #909090">a</text>
    <text x="304" y="16" style="fill: #909090">r</text>
    <text x="312" y="16" style="fill: #909090">w</text>
    <text x="320" y="16" style="fill: #909090">i</text>
    <text x="328" y="16" style="fill: #909090">n</text>
    <text x="336" y="16" style="fill: #909090">)</text>
    <text x="0" y="48" style="fill: #909090">f</text>
    <text x="8" y="48" style="fill: #909090">i</text>
    <text x="16" y="48" style="fill: #909090">l</text>
    <text x="24" y="48" style="fill: #909090">e</text>
    <text x="32" y="48" style="fill: #909090">:</text>
    <text x="40" y="48" style="fill: #909090">/</text>
    <text x="48" y="48" style="fill: #909090">/</text>
    <text x="56" y="48" style="fill: #909090">/</text>
    <text x="64" y="48" style="fill: #909090">U</text>
    <text x="72" y="48" style="fill: #909090">s</text>
    <text x="80" y="48" style="fill: #909090">e</text>
    <text x="88" y="48" style="fill: #909090">r</text>
    <text x="96" y="48" style="fill: #909090">s</text>
    <text x="104" y="48" style="fill: #909090">/</text>
    <text x="112" y="48" style="fill: #909090">w</text>
    <text x="120" y="48" style="fill: #909090">a</text>
    <text x="128" y="48" style="fill: #909090">n</text>
    <text x="136" y="48" style="fill: #909090">2</text>
    <text x="144" y="48" style="fill: #909090">l</text>
    <text x="152" y="48" style="fill: #909090">a</text>
    <text x="160" y="48" style="fill: #909090">n</text>
    <text x="168" y="48" style="fill: #909090">d</text>
    <text x="176" y="48" style="fill: #909090">/</text>
    <text x="184" y="48" style="fill: #909090">W</text>
    <text x="192" y="48" style="fill: #909090">o</text>
    <text x="200" y="48" style="fill: #909090">r</text>
    <text x="208" y="48" style="fill: #909090">k</text>
    <text x="216" y="48" style="fill: #909090">s</text>
    <text x="224" y="48" style="fill: #909090">p</text>
    <text x="232" y="48" style="fill: #909090">a</text>
    <text x="240" y="48" style="fill: #909090">c</text>
    <text x="248" y="48" style="fill: #909090">e</text>
    <text x="256" y="48" style="fill: #909090">/</text>
    <text x="264" y="48" style="fill: #909090">@</text>
    <text x="272" y="48" style="fill: #909090">d</text>
    <text x="280" y="48" style="fill: #909090">e</text>
    <text x="288" y="48" style="fill: #909090">n</text>
    <text x="296" y="48" style="fill: #909090">o</text>
    <text x="304" y="48" style="fill: #909090">s</text>
    <text x="312" y="48" style="fill: #909090">t</text>
    <text x="320" y="48" style="fill: #909090">a</text>
    <text x="328" y="48" style="fill: #909090">c</text>
    <text x="336" y="48" style="fill: #909090">k</text>
    <text x="344" y="48" style="fill: #909090">/</text>
    <text x="352" y="48" style="fill: #909090">s</text>
    <text x="360" y="48" style="fill: #909090">a</text>
    <text x="368" y="48" style="fill: #909090">f</text>
    <text x="376" y="48" style="fill: #909090">e</text>
    <text x="384" y="48" style="fill: #909090">n</text>
    <text x="392" y="48" style="fill: #909090">/</text>
    <text x="400" y="48" style="fill: #909090">.</text>
    <text x="408" y="48" style="fill: #909090">b</text>
    <text x="416" y="48" style="fill: #909090">e</text>
    <text x="424" y="48" style="fill: #909090">n</text>
    <text x="432" y="48" style="fill: #909090">c</text>
    <text x="440" y="48" style="fill: #909090">h</text>
    <text x="448" y="48" style="fill: #909090">m</text>
    <text x="456" y="48" style="fill: #909090">a</text>
    <text x="464" y="48" style="fill: #909090">r</text>
    <text x="472" y="48" style="fill: #909090">k</text>
    <text x="480" y="48" style="fill: #909090">/</text>
    <text x="488" y="48" style="fill: #909090">c</text>
    <text x="496" y="48" style="fill: #909090">o</text>
    <text x="504" y="48" style="fill: #909090">m</text>
    <text x="512" y="48" style="fill: #909090">p</text>
    <text x="520" y="48" style="fill: #909090">a</text>
    <text x="528" y="48" style="fill: #909090">r</text>
    <text x="536" y="48" style="fill: #909090">i</text>
    <text x="544" y="48" style="fill: #909090">s</text>
    <text x="552" y="48" style="fill: #909090">o</text>
    <text x="560" y="48" style="fill: #909090">n</text>
    <text x="568" y="48" style="fill: #909090">.</text>
    <text x="576" y="48" style="fill: #909090">b</text>
    <text x="584" y="48" style="fill: #909090">e</text>
    <text x="592" y="48" style="fill: #909090">n</text>
    <text x="600" y="48" style="fill: #909090">c</text>
    <text x="608" y="48" style="fill: #909090">h</text>
    <text x="616" y="48" style="fill: #909090">.</text>
    <text x="624" y="48" style="fill: #909090">t</text>
    <text x="632" y="48" style="fill: #909090">s</text>
    <text x="0" y="64">b</text>
    <text x="8" y="64">e</text>
    <text x="16" y="64">n</text>
    <text x="24" y="64">c</text>
    <text x="32" y="64">h</text>
    <text x="40" y="64">m</text>
    <text x="48" y="64">a</text>
    <text x="56" y="64">r</text>
    <text x="64" y="64">k</text>
    <text x="336" y="64">t</text>
    <text x="344" y="64">i</text>
    <text x="352" y="64">m</text>
    <text x="360" y="64">e</text>
    <text x="376" y="64">(</text>
    <text x="384" y="64">a</text>
    <text x="392" y="64">v</text>
    <text x="400" y="64">g</text>
    <text x="408" y="64">)</text>
    <text x="520" y="64">(</text>
    <text x="528" y="64">m</text>
    <text x="536" y="64">i</text>
    <text x="544" y="64">n</text>
    <text x="560" y="64">…</text>
    <text x="576" y="64">m</text>
    <text x="584" y="64">a</text>
    <text x="592" y="64">x</text>
    <text x="600" y="64">)</text>
    <text x="664" y="64">p</text>
    <text x="672" y="64">7</text>
    <text x="680" y="64">5</text>
    <text x="744" y="64">p</text>
    <text x="752" y="64">9</text>
    <text x="760" y="64">9</text>
    <text x="816" y="64">p</text>
    <text x="824" y="64">9</text>
    <text x="832" y="64">9</text>
    <text x="840" y="64">5</text>
    <text x="0" y="80">-</text>
    <text x="8" y="80">-</text>
    <text x="16" y="80">-</text>
    <text x="24" y="80">-</text>
    <text x="32" y="80">-</text>
    <text x="40" y="80">-</text>
    <text x="48" y="80">-</text>
    <text x="56" y="80">-</text>
    <text x="64" y="80">-</text>
    <text x="72" y="80">-</text>
    <text x="80" y="80">-</text>
    <text x="88" y="80">-</text>
    <text x="96" y="80">-</text>
    <text x="104" y="80">-</text>
    <text x="112" y="80">-</text>
    <text x="120" y="80">-</text>
    <text x="128" y="80">-</text>
    <text x="136" y="80">-</text>
    <text x="144" y="80">-</text>
    <text x="152" y="80">-</text>
    <text x="160" y="80">-</text>
    <text x="168" y="80">-</text>
    <text x="176" y="80">-</text>
    <text x="184" y="80">-</text>
    <text x="192" y="80">-</text>
    <text x="200" y="80">-</text>
    <text x="208" y="80">-</text>
    <text x="216" y="80">-</text>
    <text x="224" y="80">-</text>
    <text x="232" y="80">-</text>
    <text x="240" y="80">-</text>
    <text x="248" y="80">-</text>
    <text x="256" y="80">-</text>
    <text x="264" y="80">-</text>
    <text x="272" y="80">-</text>
    <text x="280" y="80">-</text>
    <text x="288" y="80">-</text>
    <text x="296" y="80">-</text>
    <text x="304" y="80">-</text>
    <text x="312" y="80">-</text>
    <text x="320" y="80">-</text>
    <text x="328" y="80">-</text>
    <text x="336" y="80">-</text>
    <text x="344" y="80">-</text>
    <text x="352" y="80">-</text>
    <text x="360" y="80">-</text>
    <text x="368" y="80">-</text>
    <text x="376" y="80">-</text>
    <text x="384" y="80">-</text>
    <text x="392" y="80">-</text>
    <text x="400" y="80">-</text>
    <text x="408" y="80">-</text>
    <text x="416" y="80">-</text>
    <text x="424" y="80">-</text>
    <text x="432" y="80">-</text>
    <text x="440" y="80">-</text>
    <text x="448" y="80">-</text>
    <text x="456" y="80">-</text>
    <text x="464" y="80">-</text>
    <text x="472" y="80">-</text>
    <text x="480" y="80">-</text>
    <text x="488" y="80">-</text>
    <text x="496" y="80">-</text>
    <text x="504" y="80">-</text>
    <text x="512" y="80">-</text>
    <text x="520" y="80">-</text>
    <text x="528" y="80">-</text>
    <text x="536" y="80">-</text>
    <text x="544" y="80">-</text>
    <text x="552" y="80">-</text>
    <text x="560" y="80">-</text>
    <text x="568" y="80">-</text>
    <text x="576" y="80">-</text>
    <text x="584" y="80">-</text>
    <text x="592" y="80">-</text>
    <text x="600" y="80">-</text>
    <text x="616" y="80">-</text>
    <text x="624" y="80">-</text>
    <text x="632" y="80">-</text>
    <text x="640" y="80">-</text>
    <text x="648" y="80">-</text>
    <text x="656" y="80">-</text>
    <text x="664" y="80">-</text>
    <text x="672" y="80">-</text>
    <text x="680" y="80">-</text>
    <text x="688" y="80">-</text>
    <text x="696" y="80">-</text>
    <text x="704" y="80">-</text>
    <text x="712" y="80">-</text>
    <text x="720" y="80">-</text>
    <text x="728" y="80">-</text>
    <text x="736" y="80">-</text>
    <text x="744" y="80">-</text>
    <text x="752" y="80">-</text>
    <text x="760" y="80">-</text>
    <text x="768" y="80">-</text>
    <text x="776" y="80">-</text>
    <text x="784" y="80">-</text>
    <text x="792" y="80">-</text>
    <text x="800" y="80">-</text>
    <text x="808" y="80">-</text>
    <text x="816" y="80">-</text>
    <text x="824" y="80">-</text>
    <text x="832" y="80">-</text>
    <text x="840" y="80">-</text>
    <text x="0" y="96">S</text>
    <text x="8" y="96">a</text>
    <text x="16" y="96">f</text>
    <text x="24" y="96">e</text>
    <text x="32" y="96">n</text>
    <text x="48" y="96">O</text>
    <text x="56" y="96">b</text>
    <text x="64" y="96">j</text>
    <text x="72" y="96">e</text>
    <text x="80" y="96">c</text>
    <text x="88" y="96">t</text>
    <text x="304" y="96" style="fill: #bbbb00">4</text>
    <text x="312" y="96" style="fill: #bbbb00">6</text>
    <text x="320" y="96" style="fill: #bbbb00">3</text>
    <text x="328" y="96" style="fill: #bbbb00">.</text>
    <text x="336" y="96" style="fill: #bbbb00">3</text>
    <text x="344" y="96" style="fill: #bbbb00">8</text>
    <text x="360" y="96" style="fill: #bbbb00">n</text>
    <text x="368" y="96" style="fill: #bbbb00">s</text>
    <text x="376" y="96">/</text>
    <text x="384" y="96">i</text>
    <text x="392" y="96">t</text>
    <text x="400" y="96">e</text>
    <text x="408" y="96">r</text>
    <text x="432" y="96">(</text>
    <text x="440" y="96" style="fill: #00bbbb">4</text>
    <text x="448" y="96" style="fill: #00bbbb">5</text>
    <text x="456" y="96" style="fill: #00bbbb">6</text>
    <text x="464" y="96" style="fill: #00bbbb">.</text>
    <text x="472" y="96" style="fill: #00bbbb">2</text>
    <text x="480" y="96" style="fill: #00bbbb">1</text>
    <text x="496" y="96" style="fill: #00bbbb">n</text>
    <text x="504" y="96" style="fill: #00bbbb">s</text>
    <text x="520" y="96">…</text>
    <text x="536" y="96" style="fill: #bb00bb">4</text>
    <text x="544" y="96" style="fill: #bb00bb">9</text>
    <text x="552" y="96" style="fill: #bb00bb">7</text>
    <text x="560" y="96" style="fill: #bb00bb">.</text>
    <text x="568" y="96" style="fill: #bb00bb">4</text>
    <text x="584" y="96" style="fill: #bb00bb">n</text>
    <text x="592" y="96" style="fill: #bb00bb">s</text>
    <text x="600" y="96">)</text>
    <text x="616" y="96" style="fill: #555555">4</text>
    <text x="624" y="96" style="fill: #555555">6</text>
    <text x="632" y="96" style="fill: #555555">2</text>
    <text x="640" y="96" style="fill: #555555">.</text>
    <text x="648" y="96" style="fill: #555555">5</text>
    <text x="656" y="96" style="fill: #555555">3</text>
    <text x="672" y="96" style="fill: #555555">n</text>
    <text x="680" y="96" style="fill: #555555">s</text>
    <text x="696" y="96" style="fill: #555555">4</text>
    <text x="704" y="96" style="fill: #555555">9</text>
    <text x="712" y="96" style="fill: #555555">7</text>
    <text x="720" y="96" style="fill: #555555">.</text>
    <text x="728" y="96" style="fill: #555555">1</text>
    <text x="736" y="96" style="fill: #555555">1</text>
    <text x="752" y="96" style="fill: #555555">n</text>
    <text x="760" y="96" style="fill: #555555">s</text>
    <text x="784" y="96" style="fill: #555555">4</text>
    <text x="792" y="96" style="fill: #555555">9</text>
    <text x="800" y="96" style="fill: #555555">7</text>
    <text x="808" y="96" style="fill: #555555">.</text>
    <text x="816" y="96" style="fill: #555555">4</text>
    <text x="832" y="96" style="fill: #555555">n</text>
    <text x="840" y="96" style="fill: #555555">s</text>
    <text x="0" y="112">S</text>
    <text x="8" y="112">a</text>
    <text x="16" y="112">f</text>
    <text x="24" y="112">e</text>
    <text x="32" y="112">n</text>
    <text x="40" y="112">(</text>
    <text x="48" y="112">w</text>
    <text x="56" y="112">/</text>
    <text x="72" y="112">V</text>
    <text x="80" y="112">a</text>
    <text x="88" y="112">l</text>
    <text x="96" y="112">i</text>
    <text x="104" y="112">d</text>
    <text x="112" y="112">a</text>
    <text x="120" y="112">t</text>
    <text x="128" y="112">e</text>
    <text x="144" y="112">C</text>
    <text x="152" y="112">r</text>
    <text x="160" y="112">e</text>
    <text x="168" y="112">a</text>
    <text x="176" y="112">t</text>
    <text x="184" y="112">i</text>
    <text x="192" y="112">o</text>
    <text x="200" y="112">n</text>
    <text x="208" y="112">)</text>
    <text x="224" y="112">O</text>
    <text x="232" y="112">b</text>
    <text x="240" y="112">j</text>
    <text x="248" y="112">e</text>
    <text x="256" y="112">c</text>
    <text x="264" y="112">t</text>
    <text x="312" y="112" style="fill: #bbbb00">1</text>
    <text x="320" y="112" style="fill: #bbbb00">3</text>
    <text x="328" y="112" style="fill: #bbbb00">.</text>
    <text x="336" y="112" style="fill: #bbbb00">2</text>
    <text x="344" y="112" style="fill: #bbbb00">7</text>
    <text x="360" y="112" style="fill: #bbbb00">µ</text>
    <text x="368" y="112" style="fill: #bbbb00">s</text>
    <text x="376" y="112">/</text>
    <text x="384" y="112">i</text>
    <text x="392" y="112">t</text>
    <text x="400" y="112">e</text>
    <text x="408" y="112">r</text>
    <text x="432" y="112">(</text>
    <text x="440" y="112" style="fill: #00bbbb">1</text>
    <text x="448" y="112" style="fill: #00bbbb">2</text>
    <text x="456" y="112" style="fill: #00bbbb">.</text>
    <text x="464" y="112" style="fill: #00bbbb">3</text>
    <text x="472" y="112" style="fill: #00bbbb">8</text>
    <text x="488" y="112" style="fill: #00bbbb">µ</text>
    <text x="496" y="112" style="fill: #00bbbb">s</text>
    <text x="512" y="112">…</text>
    <text x="528" y="112" style="fill: #bb00bb">2</text>
    <text x="536" y="112" style="fill: #bb00bb">4</text>
    <text x="544" y="112" style="fill: #bb00bb">3</text>
    <text x="552" y="112" style="fill: #bb00bb">.</text>
    <text x="560" y="112" style="fill: #bb00bb">0</text>
    <text x="568" y="112" style="fill: #bb00bb">4</text>
    <text x="584" y="112" style="fill: #bb00bb">µ</text>
    <text x="592" y="112" style="fill: #bb00bb">s</text>
    <text x="600" y="112">)</text>
    <text x="624" y="112" style="fill: #555555">1</text>
    <text x="632" y="112" style="fill: #555555">2</text>
    <text x="640" y="112" style="fill: #555555">.</text>
    <text x="648" y="112" style="fill: #555555">8</text>
    <text x="656" y="112" style="fill: #555555">3</text>
    <text x="672" y="112" style="fill: #555555">µ</text>
    <text x="680" y="112" style="fill: #555555">s</text>
    <text x="704" y="112" style="fill: #555555">1</text>
    <text x="712" y="112" style="fill: #555555">7</text>
    <text x="720" y="112" style="fill: #555555">.</text>
    <text x="728" y="112" style="fill: #555555">3</text>
    <text x="736" y="112" style="fill: #555555">3</text>
    <text x="752" y="112" style="fill: #555555">µ</text>
    <text x="760" y="112" style="fill: #555555">s</text>
    <text x="784" y="112" style="fill: #555555">2</text>
    <text x="792" y="112" style="fill: #555555">0</text>
    <text x="800" y="112" style="fill: #555555">.</text>
    <text x="808" y="112" style="fill: #555555">3</text>
    <text x="816" y="112" style="fill: #555555">3</text>
    <text x="832" y="112" style="fill: #555555">µ</text>
    <text x="840" y="112" style="fill: #555555">s</text>
    <text x="0" y="128">Z</text>
    <text x="8" y="128">o</text>
    <text x="16" y="128">d</text>
    <text x="32" y="128">O</text>
    <text x="40" y="128">b</text>
    <text x="48" y="128">j</text>
    <text x="56" y="128">e</text>
    <text x="64" y="128">c</text>
    <text x="72" y="128">t</text>
    <text x="320" y="128" style="fill: #bbbb00">9</text>
    <text x="328" y="128" style="fill: #bbbb00">5</text>
    <text x="336" y="128" style="fill: #bbbb00">.</text>
    <text x="344" y="128" style="fill: #bbbb00">5</text>
    <text x="360" y="128" style="fill: #bbbb00">µ</text>
    <text x="368" y="128" style="fill: #bbbb00">s</text>
    <text x="376" y="128">/</text>
    <text x="384" y="128">i</text>
    <text x="392" y="128">t</text>
    <text x="400" y="128">e</text>
    <text x="408" y="128">r</text>
    <text x="456" y="128">(</text>
    <text x="464" y="128" style="fill: #00bbbb">9</text>
    <text x="472" y="128" style="fill: #00bbbb">2</text>
    <text x="488" y="128" style="fill: #00bbbb">µ</text>
    <text x="496" y="128" style="fill: #00bbbb">s</text>
    <text x="512" y="128">…</text>
    <text x="528" y="128" style="fill: #bb00bb">2</text>
    <text x="536" y="128" style="fill: #bb00bb">5</text>
    <text x="544" y="128" style="fill: #bb00bb">4</text>
    <text x="552" y="128" style="fill: #bb00bb">.</text>
    <text x="560" y="128" style="fill: #bb00bb">8</text>
    <text x="568" y="128" style="fill: #bb00bb">3</text>
    <text x="584" y="128" style="fill: #bb00bb">µ</text>
    <text x="592" y="128" style="fill: #bb00bb">s</text>
    <text x="600" y="128">)</text>
    <text x="624" y="128" style="fill: #555555">9</text>
    <text x="632" y="128" style="fill: #555555">4</text>
    <text x="640" y="128" style="fill: #555555">.</text>
    <text x="648" y="128" style="fill: #555555">2</text>
    <text x="656" y="128" style="fill: #555555">9</text>
    <text x="672" y="128" style="fill: #555555">µ</text>
    <text x="680" y="128" style="fill: #555555">s</text>
    <text x="696" y="128" style="fill: #555555">1</text>
    <text x="704" y="128" style="fill: #555555">6</text>
    <text x="712" y="128" style="fill: #555555">3</text>
    <text x="720" y="128" style="fill: #555555">.</text>
    <text x="728" y="128" style="fill: #555555">6</text>
    <text x="736" y="128" style="fill: #555555">7</text>
    <text x="752" y="128" style="fill: #555555">µ</text>
    <text x="760" y="128" style="fill: #555555">s</text>
    <text x="776" y="128" style="fill: #555555">1</text>
    <text x="784" y="128" style="fill: #555555">7</text>
    <text x="792" y="128" style="fill: #555555">3</text>
    <text x="800" y="128" style="fill: #555555">.</text>
    <text x="808" y="128" style="fill: #555555">5</text>
    <text x="816" y="128" style="fill: #555555">8</text>
    <text x="832" y="128" style="fill: #555555">µ</text>
    <text x="840" y="128" style="fill: #555555">s</text>
    <text x="0" y="144">A</text>
    <text x="8" y="144">j</text>
    <text x="16" y="144">v</text>
    <text x="32" y="144">O</text>
    <text x="40" y="144">b</text>
    <text x="48" y="144">j</text>
    <text x="56" y="144">e</text>
    <text x="64" y="144">c</text>
    <text x="72" y="144">t</text>
    <text x="320" y="144" style="fill: #bbbb00">3</text>
    <text x="328" y="144" style="fill: #bbbb00">.</text>
    <text x="336" y="144" style="fill: #bbbb00">1</text>
    <text x="344" y="144" style="fill: #bbbb00">7</text>
    <text x="360" y="144" style="fill: #bbbb00">µ</text>
    <text x="368" y="144" style="fill: #bbbb00">s</text>
    <text x="376" y="144">/</text>
    <text x="384" y="144">i</text>
    <text x="392" y="144">t</text>
    <text x="400" y="144">e</text>
    <text x="408" y="144">r</text>
    <text x="472" y="144">(</text>
    <text x="480" y="144" style="fill: #00bbbb">3</text>
    <text x="496" y="144" style="fill: #00bbbb">µ</text>
    <text x="504" y="144" style="fill: #00bbbb">s</text>
    <text x="520" y="144">…</text>
    <text x="536" y="144" style="fill: #bb00bb">4</text>
    <text x="544" y="144" style="fill: #bb00bb">6</text>
    <text x="552" y="144" style="fill: #bb00bb">.</text>
    <text x="560" y="144" style="fill: #bb00bb">2</text>
    <text x="568" y="144" style="fill: #bb00bb">9</text>
    <text x="584" y="144" style="fill: #bb00bb">µ</text>
    <text x="592" y="144" style="fill: #bb00bb">s</text>
    <text x="600" y="144">)</text>
    <text x="632" y="144" style="fill: #555555">3</text>
    <text x="640" y="144" style="fill: #555555">.</text>
    <text x="648" y="144" style="fill: #555555">1</text>
    <text x="656" y="144" style="fill: #555555">7</text>
    <text x="672" y="144" style="fill: #555555">µ</text>
    <text x="680" y="144" style="fill: #555555">s</text>
    <text x="712" y="144" style="fill: #555555">3</text>
    <text x="720" y="144" style="fill: #555555">.</text>
    <text x="728" y="144" style="fill: #555555">3</text>
    <text x="736" y="144" style="fill: #555555">8</text>
    <text x="752" y="144" style="fill: #555555">µ</text>
    <text x="760" y="144" style="fill: #555555">s</text>
    <text x="792" y="144" style="fill: #555555">3</text>
    <text x="800" y="144" style="fill: #555555">.</text>
    <text x="808" y="144" style="fill: #555555">4</text>
    <text x="816" y="144" style="fill: #555555">6</text>
    <text x="832" y="144" style="fill: #555555">µ</text>
    <text x="840" y="144" style="fill: #555555">s</text>
    <text x="0" y="160">A</text>
    <text x="8" y="160">j</text>
    <text x="16" y="160">v</text>
    <text x="24" y="160">(</text>
    <text x="32" y="160">w</text>
    <text x="40" y="160">/</text>
    <text x="56" y="160">V</text>
    <text x="64" y="160">a</text>
    <text x="72" y="160">l</text>
    <text x="80" y="160">i</text>
    <text x="88" y="160">d</text>
    <text x="96" y="160">a</text>
    <text x="104" y="160">t</text>
    <text x="112" y="160">e</text>
    <text x="128" y="160">C</text>
    <text x="136" y="160">r</text>
    <text x="144" y="160">e</text>
    <text x="152" y="160">a</text>
    <text x="160" y="160">t</text>
    <text x="168" y="160">i</text>
    <text x="176" y="160">o</text>
    <text x="184" y="160">n</text>
    <text x="192" y="160">)</text>
    <text x="208" y="160">O</text>
    <text x="216" y="160">b</text>
    <text x="224" y="160">j</text>
    <text x="232" y="160">e</text>
    <text x="240" y="160">c</text>
    <text x="248" y="160">t</text>
    <text x="320" y="160" style="fill: #bbbb00">2</text>
    <text x="328" y="160" style="fill: #bbbb00">.</text>
    <text x="336" y="160" style="fill: #bbbb00">3</text>
    <text x="344" y="160" style="fill: #bbbb00">3</text>
    <text x="360" y="160" style="fill: #bbbb00">m</text>
    <text x="368" y="160" style="fill: #bbbb00">s</text>
    <text x="376" y="160">/</text>
    <text x="384" y="160">i</text>
    <text x="392" y="160">t</text>
    <text x="400" y="160">e</text>
    <text x="408" y="160">r</text>
    <text x="456" y="160">(</text>
    <text x="464" y="160" style="fill: #00bbbb">2</text>
    <text x="472" y="160" style="fill: #00bbbb">.</text>
    <text x="480" y="160" style="fill: #00bbbb">1</text>
    <text x="488" y="160" style="fill: #00bbbb">4</text>
    <text x="504" y="160" style="fill: #00bbbb">m</text>
    <text x="512" y="160" style="fill: #00bbbb">s</text>
    <text x="528" y="160">…</text>
    <text x="544" y="160" style="fill: #bb00bb">5</text>
    <text x="552" y="160" style="fill: #bb00bb">.</text>
    <text x="560" y="160" style="fill: #bb00bb">0</text>
    <text x="568" y="160" style="fill: #bb00bb">8</text>
    <text x="584" y="160" style="fill: #bb00bb">m</text>
    <text x="592" y="160" style="fill: #bb00bb">s</text>
    <text x="600" y="160">)</text>
    <text x="632" y="160" style="fill: #555555">2</text>
    <text x="640" y="160" style="fill: #555555">.</text>
    <text x="648" y="160" style="fill: #555555">3</text>
    <text x="656" y="160" style="fill: #555555">5</text>
    <text x="672" y="160" style="fill: #555555">m</text>
    <text x="680" y="160" style="fill: #555555">s</text>
    <text x="712" y="160" style="fill: #555555">3</text>
    <text x="720" y="160" style="fill: #555555">.</text>
    <text x="728" y="160" style="fill: #555555">5</text>
    <text x="736" y="160" style="fill: #555555">7</text>
    <text x="752" y="160" style="fill: #555555">m</text>
    <text x="760" y="160" style="fill: #555555">s</text>
    <text x="792" y="160" style="fill: #555555">4</text>
    <text x="800" y="160" style="fill: #555555">.</text>
    <text x="808" y="160" style="fill: #555555">2</text>
    <text x="816" y="160" style="fill: #555555">8</text>
    <text x="832" y="160" style="fill: #555555">m</text>
    <text x="840" y="160" style="fill: #555555">s</text>
    <text x="0" y="176">T</text>
    <text x="8" y="176">y</text>
    <text x="16" y="176">p</text>
    <text x="24" y="176">e</text>
    <text x="32" y="176">B</text>
    <text x="40" y="176">o</text>
    <text x="48" y="176">x</text>
    <text x="64" y="176">O</text>
    <text x="72" y="176">b</text>
    <text x="80" y="176">j</text>
    <text x="88" y="176">e</text>
    <text x="96" y="176">c</text>
    <text x="104" y="176">t</text>
    <text x="304" y="176" style="fill: #bbbb00">7</text>
    <text x="312" y="176" style="fill: #bbbb00">5</text>
    <text x="320" y="176" style="fill: #bbbb00">0</text>
    <text x="328" y="176" style="fill: #bbbb00">.</text>
    <text x="336" y="176" style="fill: #bbbb00">4</text>
    <text x="344" y="176" style="fill: #bbbb00">9</text>
    <text x="360" y="176" style="fill: #bbbb00">n</text>
    <text x="368" y="176" style="fill: #bbbb00">s</text>
    <text x="376" y="176">/</text>
    <text x="384" y="176">i</text>
    <text x="392" y="176">t</text>
    <text x="400" y="176">e</text>
    <text x="408" y="176">r</text>
    <text x="424" y="176">(</text>
    <text x="432" y="176" style="fill: #00bbbb">7</text>
    <text x="440" y="176" style="fill: #00bbbb">3</text>
    <text x="448" y="176" style="fill: #00bbbb">7</text>
    <text x="456" y="176" style="fill: #00bbbb">.</text>
    <text x="464" y="176" style="fill: #00bbbb">5</text>
    <text x="472" y="176" style="fill: #00bbbb">4</text>
    <text x="488" y="176" style="fill: #00bbbb">n</text>
    <text x="496" y="176" style="fill: #00bbbb">s</text>
    <text x="512" y="176">…</text>
    <text x="528" y="176" style="fill: #bb00bb">8</text>
    <text x="536" y="176" style="fill: #bb00bb">5</text>
    <text x="544" y="176" style="fill: #bb00bb">5</text>
    <text x="552" y="176" style="fill: #bb00bb">.</text>
    <text x="560" y="176" style="fill: #bb00bb">1</text>
    <text x="568" y="176" style="fill: #bb00bb">2</text>
    <text x="584" y="176" style="fill: #bb00bb">n</text>
    <text x="592" y="176" style="fill: #bb00bb">s</text>
    <text x="600" y="176">)</text>
    <text x="624" y="176" style="fill: #555555">7</text>
    <text x="632" y="176" style="fill: #555555">5</text>
    <text x="640" y="176" style="fill: #555555">7</text>
    <text x="648" y="176" style="fill: #555555">.</text>
    <text x="656" y="176" style="fill: #555555">1</text>
    <text x="672" y="176" style="fill: #555555">n</text>
    <text x="680" y="176" style="fill: #555555">s</text>
    <text x="696" y="176" style="fill: #555555">8</text>
    <text x="704" y="176" style="fill: #555555">5</text>
    <text x="712" y="176" style="fill: #555555">5</text>
    <text x="720" y="176" style="fill: #555555">.</text>
    <text x="728" y="176" style="fill: #555555">1</text>
    <text x="736" y="176" style="fill: #555555">2</text>
    <text x="752" y="176" style="fill: #555555">n</text>
    <text x="760" y="176" style="fill: #555555">s</text>
    <text x="776" y="176" style="fill: #555555">8</text>
    <text x="784" y="176" style="fill: #555555">5</text>
    <text x="792" y="176" style="fill: #555555">5</text>
    <text x="800" y="176" style="fill: #555555">.</text>
    <text x="808" y="176" style="fill: #555555">1</text>
    <text x="816" y="176" style="fill: #555555">2</text>
    <text x="832" y="176" style="fill: #555555">n</text>
    <text x="840" y="176" style="fill: #555555">s</text>
    <text x="0" y="192">T</text>
    <text x="8" y="192">y</text>
    <text x="16" y="192">p</text>
    <text x="24" y="192">e</text>
    <text x="32" y="192">B</text>
    <text x="40" y="192">o</text>
    <text x="48" y="192">x</text>
    <text x="56" y="192">(</text>
    <text x="64" y="192">w</text>
    <text x="72" y="192">/</text>
    <text x="88" y="192">V</text>
    <text x="96" y="192">a</text>
    <text x="104" y="192">l</text>
    <text x="112" y="192">i</text>
    <text x="120" y="192">d</text>
    <text x="128" y="192">a</text>
    <text x="136" y="192">t</text>
    <text x="144" y="192">e</text>
    <text x="160" y="192">C</text>
    <text x="168" y="192">r</text>
    <text x="176" y="192">e</text>
    <text x="184" y="192">a</text>
    <text x="192" y="192">t</text>
    <text x="200" y="192">i</text>
    <text x="208" y="192">o</text>
    <text x="216" y="192">n</text>
    <text x="224" y="192">)</text>
    <text x="240" y="192">O</text>
    <text x="248" y="192">b</text>
    <text x="256" y="192">j</text>
    <text x="264" y="192">e</text>
    <text x="272" y="192">c</text>
    <text x="280" y="192">t</text>
    <text x="312" y="192" style="fill: #bbbb00">2</text>
    <text x="320" y="192" style="fill: #bbbb00">2</text>
    <text x="328" y="192" style="fill: #bbbb00">.</text>
    <text x="336" y="192" style="fill: #bbbb00">9</text>
    <text x="344" y="192" style="fill: #bbbb00">2</text>
    <text x="360" y="192" style="fill: #bbbb00">µ</text>
    <text x="368" y="192" style="fill: #bbbb00">s</text>
    <text x="376" y="192">/</text>
    <text x="384" y="192">i</text>
    <text x="392" y="192">t</text>
    <text x="400" y="192">e</text>
    <text x="408" y="192">r</text>
    <text x="432" y="192">(</text>
    <text x="440" y="192" style="fill: #00bbbb">2</text>
    <text x="448" y="192" style="fill: #00bbbb">1</text>
    <text x="456" y="192" style="fill: #00bbbb">.</text>
    <text x="464" y="192" style="fill: #00bbbb">5</text>
    <text x="472" y="192" style="fill: #00bbbb">8</text>
    <text x="488" y="192" style="fill: #00bbbb">µ</text>
    <text x="496" y="192" style="fill: #00bbbb">s</text>
    <text x="512" y="192">…</text>
    <text x="528" y="192" style="fill: #bb00bb">2</text>
    <text x="536" y="192" style="fill: #bb00bb">8</text>
    <text x="544" y="192" style="fill: #bb00bb">7</text>
    <text x="552" y="192" style="fill: #bb00bb">.</text>
    <text x="560" y="192" style="fill: #bb00bb">0</text>
    <text x="568" y="192" style="fill: #bb00bb">4</text>
    <text x="584" y="192" style="fill: #bb00bb">µ</text>
    <text x="592" y="192" style="fill: #bb00bb">s</text>
    <text x="600" y="192">)</text>
    <text x="624" y="192" style="fill: #555555">2</text>
    <text x="632" y="192" style="fill: #555555">2</text>
    <text x="640" y="192" style="fill: #555555">.</text>
    <text x="648" y="192" style="fill: #555555">4</text>
    <text x="656" y="192" style="fill: #555555">6</text>
    <text x="672" y="192" style="fill: #555555">µ</text>
    <text x="680" y="192" style="fill: #555555">s</text>
    <text x="704" y="192" style="fill: #555555">3</text>
    <text x="712" y="192" style="fill: #555555">1</text>
    <text x="720" y="192" style="fill: #555555">.</text>
    <text x="728" y="192" style="fill: #555555">7</text>
    <text x="736" y="192" style="fill: #555555">9</text>
    <text x="752" y="192" style="fill: #555555">µ</text>
    <text x="760" y="192" style="fill: #555555">s</text>
    <text x="784" y="192" style="fill: #555555">3</text>
    <text x="792" y="192" style="fill: #555555">5</text>
    <text x="800" y="192" style="fill: #555555">.</text>
    <text x="808" y="192" style="fill: #555555">1</text>
    <text x="816" y="192" style="fill: #555555">2</text>
    <text x="832" y="192" style="fill: #555555">µ</text>
    <text x="840" y="192" style="fill: #555555">s</text>
    <text x="0" y="224" style="fill: #ffffff">s</text>
    <text x="8" y="224" style="fill: #ffffff">u</text>
    <text x="16" y="224" style="fill: #ffffff">m</text>
    <text x="24" y="224" style="fill: #ffffff">m</text>
    <text x="32" y="224" style="fill: #ffffff">a</text>
    <text x="40" y="224" style="fill: #ffffff">r</text>
    <text x="48" y="224" style="fill: #ffffff">y</text>
    <text x="16" y="240" style="fill: #50ffff">S</text>
    <text x="24" y="240" style="fill: #50ffff">a</text>
    <text x="32" y="240" style="fill: #50ffff">f</text>
    <text x="40" y="240" style="fill: #50ffff">e</text>
    <text x="48" y="240" style="fill: #50ffff">n</text>
    <text x="64" y="240" style="fill: #50ffff">O</text>
    <text x="72" y="240" style="fill: #50ffff">b</text>
    <text x="80" y="240" style="fill: #50ffff">j</text>
    <text x="88" y="240" style="fill: #50ffff">e</text>
    <text x="96" y="240" style="fill: #50ffff">c</text>
    <text x="104" y="240" style="fill: #50ffff">t</text>
    <text x="24" y="256" style="fill: #00bb00">1</text>
    <text x="32" y="256" style="fill: #00bb00">.</text>
    <text x="40" y="256" style="fill: #00bb00">6</text>
    <text x="48" y="256" style="fill: #00bb00">2</text>
    <text x="56" y="256">x</text>
    <text x="72" y="256">f</text>
    <text x="80" y="256">a</text>
    <text x="88" y="256">s</text>
    <text x="96" y="256">t</text>
    <text x="104" y="256">e</text>
    <text x="112" y="256">r</text>
    <text x="128" y="256">t</text>
    <text x="136" y="256">h</text>
    <text x="144" y="256">a</text>
    <text x="152" y="256">n</text>
    <text x="168" y="256" style="fill: #50ffff">T</text>
    <text x="176" y="256" style="fill: #50ffff">y</text>
    <text x="184" y="256" style="fill: #50ffff">p</text>
    <text x="192" y="256" style="fill: #50ffff">e</text>
    <text x="200" y="256" style="fill: #50ffff">B</text>
    <text x="208" y="256" style="fill: #50ffff">o</text>
    <text x="216" y="256" style="fill: #50ffff">x</text>
    <text x="232" y="256" style="fill: #50ffff">O</text>
    <text x="240" y="256" style="fill: #50ffff">b</text>
    <text x="248" y="256" style="fill: #50ffff">j</text>
    <text x="256" y="256" style="fill: #50ffff">e</text>
    <text x="264" y="256" style="fill: #50ffff">c</text>
    <text x="272" y="256" style="fill: #50ffff">t</text>
    <text x="24" y="272" style="fill: #00bb00">6</text>
    <text x="32" y="272" style="fill: #00bb00">.</text>
    <text x="40" y="272" style="fill: #00bb00">8</text>
    <text x="48" y="272" style="fill: #00bb00">4</text>
    <text x="56" y="272">x</text>
    <text x="72" y="272">f</text>
    <text x="80" y="272">a</text>
    <text x="88" y="272">s</text>
    <text x="96" y="272">t</text>
    <text x="104" y="272">e</text>
    <text x="112" y="272">r</text>
    <text x="128" y="272">t</text>
    <text x="136" y="272">h</text>
    <text x="144" y="272">a</text>
    <text x="152" y="272">n</text>
    <text x="168" y="272" style="fill: #50ffff">A</text>
    <text x="176" y="272" style="fill: #50ffff">j</text>
    <text x="184" y="272" style="fill: #50ffff">v</text>
    <text x="200" y="272" style="fill: #50ffff">O</text>
    <text x="208" y="272" style="fill: #50ffff">b</text>
    <text x="216" y="272" style="fill: #50ffff">j</text>
    <text x="224" y="272" style="fill: #50ffff">e</text>
    <text x="232" y="272" style="fill: #50ffff">c</text>
    <text x="240" y="272" style="fill: #50ffff">t</text>
    <text x="24" y="288" style="fill: #00bb00">2</text>
    <text x="32" y="288" style="fill: #00bb00">8</text>
    <text x="40" y="288" style="fill: #00bb00">.</text>
    <text x="48" y="288" style="fill: #00bb00">6</text>
    <text x="56" y="288" style="fill: #00bb00">4</text>
    <text x="64" y="288">x</text>
    <text x="80" y="288">f</text>
    <text x="88" y="288">a</text>
    <text x="96" y="288">s</text>
    <text x="104" y="288">t</text>
    <text x="112" y="288">e</text>
    <text x="120" y="288">r</text>
    <text x="136" y="288">t</text>
    <text x="144" y="288">h</text>
    <text x="152" y="288">a</text>
    <text x="160" y="288">n</text>
    <text x="176" y="288" style="fill: #50ffff">S</text>
    <text x="184" y="288" style="fill: #50ffff">a</text>
    <text x="192" y="288" style="fill: #50ffff">f</text>
    <text x="200" y="288" style="fill: #50ffff">e</text>
    <text x="208" y="288" style="fill: #50ffff">n</text>
    <text x="216" y="288" style="fill: #50ffff">(</text>
    <text x="224" y="288" style="fill: #50ffff">w</text>
    <text x="232" y="288" style="fill: #50ffff">/</text>
    <text x="248" y="288" style="fill: #50ffff">V</text>
    <text x="256" y="288" style="fill: #50ffff">a</text>
    <text x="264" y="288" style="fill: #50ffff">l</text>
    <text x="272" y="288" style="fill: #50ffff">i</text>
    <text x="280" y="288" style="fill: #50ffff">d</text>
    <text x="288" y="288" style="fill: #50ffff">a</text>
    <text x="296" y="288" style="fill: #50ffff">t</text>
    <text x="304" y="288" style="fill: #50ffff">e</text>
    <text x="320" y="288" style="fill: #50ffff">C</text>
    <text x="328" y="288" style="fill: #50ffff">r</text>
    <text x="336" y="288" style="fill: #50ffff">e</text>
    <text x="344" y="288" style="fill: #50ffff">a</text>
    <text x="352" y="288" style="fill: #50ffff">t</text>
    <text x="360" y="288" style="fill: #50ffff">i</text>
    <text x="368" y="288" style="fill: #50ffff">o</text>
    <text x="376" y="288" style="fill: #50ffff">n</text>
    <text x="384" y="288" style="fill: #50ffff">)</text>
    <text x="400" y="288" style="fill: #50ffff">O</text>
    <text x="408" y="288" style="fill: #50ffff">b</text>
    <text x="416" y="288" style="fill: #50ffff">j</text>
    <text x="424" y="288" style="fill: #50ffff">e</text>
    <text x="432" y="288" style="fill: #50ffff">c</text>
    <text x="440" y="288" style="fill: #50ffff">t</text>
    <text x="24" y="304" style="fill: #00bb00">4</text>
    <text x="32" y="304" style="fill: #00bb00">9</text>
    <text x="40" y="304" style="fill: #00bb00">.</text>
    <text x="48" y="304" style="fill: #00bb00">4</text>
    <text x="56" y="304" style="fill: #00bb00">6</text>
    <text x="64" y="304">x</text>
    <text x="80" y="304">f</text>
    <text x="88" y="304">a</text>
    <text x="96" y="304">s</text>
    <text x="104" y="304">t</text>
    <text x="112" y="304">e</text>
    <text x="120" y="304">r</text>
    <text x="136" y="304">t</text>
    <text x="144" y="304">h</text>
    <text x="152" y="304">a</text>
    <text x="160" y="304">n</text>
    <text x="176" y="304" style="fill: #50ffff">T</text>
    <text x="184" y="304" style="fill: #50ffff">y</text>
    <text x="192" y="304" style="fill: #50ffff">p</text>
    <text x="200" y="304" style="fill: #50ffff">e</text>
    <text x="208" y="304" style="fill: #50ffff">B</text>
    <text x="216" y="304" style="fill: #50ffff">o</text>
    <text x="224" y="304" style="fill: #50ffff">x</text>
    <text x="232" y="304" style="fill: #50ffff">(</text>
    <text x="240" y="304" style="fill: #50ffff">w</text>
    <text x="248" y="304" style="fill: #50ffff">/</text>
    <text x="264" y="304" style="fill: #50ffff">V</text>
    <text x="272" y="304" style="fill: #50ffff">a</text>
    <text x="280" y="304" style="fill: #50ffff">l</text>
    <text x="288" y="304" style="fill: #50ffff">i</text>
    <text x="296" y="304" style="fill: #50ffff">d</text>
    <text x="304" y="304" style="fill: #50ffff">a</text>
    <text x="312" y="304" style="fill: #50ffff">t</text>
    <text x="320" y="304" style="fill: #50ffff">e</text>
    <text x="336" y="304" style="fill: #50ffff">C</text>
    <text x="344" y="304" style="fill: #50ffff">r</text>
    <text x="352" y="304" style="fill: #50ffff">e</text>
    <text x="360" y="304" style="fill: #50ffff">a</text>
    <text x="368" y="304" style="fill: #50ffff">t</text>
    <text x="376" y="304" style="fill: #50ffff">i</text>
    <text x="384" y="304" style="fill: #50ffff">o</text>
    <text x="392" y="304" style="fill: #50ffff">n</text>
    <text x="400" y="304" style="fill: #50ffff">)</text>
    <text x="416" y="304" style="fill: #50ffff">O</text>
    <text x="424" y="304" style="fill: #50ffff">b</text>
    <text x="432" y="304" style="fill: #50ffff">j</text>
    <text x="440" y="304" style="fill: #50ffff">e</text>
    <text x="448" y="304" style="fill: #50ffff">c</text>
    <text x="456" y="304" style="fill: #50ffff">t</text>
    <text x="24" y="320" style="fill: #00bb00">2</text>
    <text x="32" y="320" style="fill: #00bb00">0</text>
    <text x="40" y="320" style="fill: #00bb00">6</text>
    <text x="48" y="320" style="fill: #00bb00">.</text>
    <text x="56" y="320" style="fill: #00bb00">0</text>
    <text x="64" y="320" style="fill: #00bb00">9</text>
    <text x="72" y="320">x</text>
    <text x="88" y="320">f</text>
    <text x="96" y="320">a</text>
    <text x="104" y="320">s</text>
    <text x="112" y="320">t</text>
    <text x="120" y="320">e</text>
    <text x="128" y="320">r</text>
    <text x="144" y="320">t</text>
    <text x="152" y="320">h</text>
    <text x="160" y="320">a</text>
    <text x="168" y="320">n</text>
    <text x="184" y="320" style="fill: #50ffff">Z</text>
    <text x="192" y="320" style="fill: #50ffff">o</text>
    <text x="200" y="320" style="fill: #50ffff">d</text>
    <text x="216" y="320" style="fill: #50ffff">O</text>
    <text x="224" y="320" style="fill: #50ffff">b</text>
    <text x="232" y="320" style="fill: #50ffff">j</text>
    <text x="240" y="320" style="fill: #50ffff">e</text>
    <text x="248" y="320" style="fill: #50ffff">c</text>
    <text x="256" y="320" style="fill: #50ffff">t</text>
    <text x="24" y="336" style="fill: #00bb00">5</text>
    <text x="32" y="336" style="fill: #00bb00">0</text>
    <text x="40" y="336" style="fill: #00bb00">2</text>
    <text x="48" y="336" style="fill: #00bb00">4</text>
    <text x="56" y="336" style="fill: #00bb00">.</text>
    <text x="64" y="336" style="fill: #00bb00">1</text>
    <text x="72" y="336" style="fill: #00bb00">1</text>
    <text x="80" y="336">x</text>
    <text x="96" y="336">f</text>
    <text x="104" y="336">a</text>
    <text x="112" y="336">s</text>
    <text x="120" y="336">t</text>
    <text x="128" y="336">e</text>
    <text x="136" y="336">r</text>
    <text x="152" y="336">t</text>
    <text x="160" y="336">h</text>
    <text x="168" y="336">a</text>
    <text x="176" y="336">n</text>
    <text x="192" y="336" style="fill: #50ffff">A</text>
    <text x="200" y="336" style="fill: #50ffff">j</text>
    <text x="208" y="336" style="fill: #50ffff">v</text>
    <text x="216" y="336" style="fill: #50ffff">(</text>
    <text x="224" y="336" style="fill: #50ffff">w</text>
    <text x="232" y="336" style="fill: #50ffff">/</text>
    <text x="248" y="336" style="fill: #50ffff">V</text>
    <text x="256" y="336" style="fill: #50ffff">a</text>
    <text x="264" y="336" style="fill: #50ffff">l</text>
    <text x="272" y="336" style="fill: #50ffff">i</text>
    <text x="280" y="336" style="fill: #50ffff">d</text>
    <text x="288" y="336" style="fill: #50ffff">a</text>
    <text x="296" y="336" style="fill: #50ffff">t</text>
    <text x="304" y="336" style="fill: #50ffff">e</text>
    <text x="320" y="336" style="fill: #50ffff">C</text>
    <text x="328" y="336" style="fill: #50ffff">r</text>
    <text x="336" y="336" style="fill: #50ffff">e</text>
    <text x="344" y="336" style="fill: #50ffff">a</text>
    <text x="352" y="336" style="fill: #50ffff">t</text>
    <text x="360" y="336" style="fill: #50ffff">i</text>
    <text x="368" y="336" style="fill: #50ffff">o</text>
    <text x="376" y="336" style="fill: #50ffff">n</text>
    <text x="384" y="336" style="fill: #50ffff">)</text>
    <text x="400" y="336" style="fill: #50ffff">O</text>
    <text x="408" y="336" style="fill: #50ffff">b</text>
    <text x="416" y="336" style="fill: #50ffff">j</text>
    <text x="424" y="336" style="fill: #50ffff">e</text>
    <text x="432" y="336" style="fill: #50ffff">c</text>
    <text x="440" y="336" style="fill: #50ffff">t</text>
</svg>
